<?xml version="1.0" encoding="UTF-8"?>
<svg width="244px" height="172px" viewBox="0 0 244 172" version="1.1" xmlns="http://www.w3.org/2000/svg" xmlns:xlink="http://www.w3.org/1999/xlink">
    <title>Group 48</title>
    <defs>
        <linearGradient x1="50.0000537%" y1="59.4846769%" x2="50.0000537%" y2="-22.6610654%" id="linearGradient-1">
            <stop stop-color="#FFFFFF" offset="0%"></stop>
            <stop stop-color="#F2F6FA" offset="100%"></stop>
        </linearGradient>
    </defs>
    <g id="Final-Design" stroke="none" stroke-width="1" fill="none" fill-rule="evenodd">
        <g id="Dashboard/AM/NoEvent-Calendar" transform="translate(-990.000000, -1455.000000)">
            <g id="Group-48" transform="translate(990.000000, 1455.000000)">
                <g id="Group-9" transform="translate(16.000000, 9.000000)">
                    <g id="Group">
                        <path d="M52.5144617,21.5359757 C54.7039911,24.600352 52.8975914,28.5885835 50.7183041,30.8319637 C48.0382929,33.5903904 45.3154167,33.1643133 44.0749868,35.6036514 C42.5762289,38.5512788 45.7664476,40.7184532 44.1026784,43.8004732 C43.0807463,45.6939822 41.6783398,45.2431288 39.6454764,47.6468041 C37.1695481,50.5749108 39.5969213,51.4075442 37.8409734,53.5499423 C32.197966,60.4332454 29.9378801,55.6585545 26.5022309,57.4679743 C22.0492016,59.8134628 19.0702733,61.8169635 16.8902274,61.3477157 C8.32291614,59.5037593 10.9615797,53.9287192 6.80291542,51.7806901 C1.18228887,48.8773597 -1.56334755,36.9956283 2.29488236,32.8084357 C4.31484837,30.6161097 6.31129553,30.3499523 6.49906701,28.5236396 C6.7702925,25.8883436 2.74856862,25.1221557 2.34040272,21.9519171 C1.87761239,18.3567276 6.69821859,16.6152549 5.98089357,13.5786581 C5.28101803,10.6175163 0.33295481,10.7241295 0.0158296297,8.60951087 C-0.465168849,5.40210784 10.0936582,-0.341110669 21.0287868,0.0158931094 C26.2583176,0.186323935 34.7759358,1.85647095 36.1935157,6.16867116 C37.0121235,8.65868804 34.8825293,10.2650173 36.0827495,13.4814299 C36.9552231,15.8201613 38.8856657,17.1284244 41.4423926,18.8132119 C43.8705245,20.4135348 48.640679,16.1144736 52.5144617,21.5359757" id="Fill-1" fill="#4A90E2" opacity="0.209635417"></path>
                        <path d="M26.3815261,19.6063534 C28.1018164,19.5207626 28.978842,30.8735578 27.9811874,32.3620121 C26.9835328,33.8508417 25.1073353,34.9496325 24.9836716,36.5747317 C24.8596287,38.199831 25.5921271,66.9936309 26.1994446,66.5769388 C26.8067621,66.1602467 31.8443487,58.6143656 30.8387281,56.8575016 C29.8327281,55.1006376 28.6932017,52.3842555 28.9291489,50.0871934 C29.1650961,47.7901312 29.1666135,44.5189104 29.8171753,44.5988703 C30.4673578,44.6788301 29.9218721,50.3139339 30.3744204,51.406343 C30.8269686,52.498752 30.9043532,53.3535339 31.5533977,53.3726792 C32.2024422,53.3914491 32.216857,47.4297488 33.2073042,47.5341096 C34.1977513,47.6384703 33.5244293,56.4250428 33.1837853,58.0512682 C32.8427619,59.677869 31.678958,65.2934521 30.6046775,67.3611459 C29.530397,69.4288397 26.2646905,71.5967648 26.1846505,72.3013874 C26.1049899,73.00601 26.628474,89.7750518 26.628474,89.7750518 L18.0725429,89.9285898 C18.0725429,89.9285898 21.2327939,56.8650096 20.527987,55.7643418 C19.8231801,54.6640494 15.35915,45.7310715 14.4032225,44.8188537 C13.4472949,43.9066358 12.875635,38.3394791 13.379773,38.2587685 C13.8842903,38.1784333 14.1642406,43.6074434 15.2134849,43.6960374 C16.2631085,43.784256 16.827561,33.1920177 17.5881304,33.2854919 C18.3483204,33.3789661 16.8499419,44.2745262 17.2596251,44.9464891 C17.6693083,45.6184521 20.0553339,49.6509805 20.8485262,49.5653897 C21.6417185,49.4797989 20.4122894,19.8278384 21.0924395,19.4941093 C21.7729689,19.1600049 22.2835556,19.4370488 22.7015842,22.5397157 C23.1199922,25.642758 23.9302546,32.4209496 24.399873,32.4123155 C24.8694914,32.4040567 26.0427787,31.3818471 26.0662976,30.7023762 C26.0901958,30.0225299 25.6160253,19.6442687 26.3815261,19.6063534" id="Fill-3" fill="#93BFF0"></path>
                    </g>
                    <g id="Group-2" transform="translate(165.705459, 41.084786)">
                        <path d="M0.562297736,12.1932549 C-0.677373422,13.9283458 0.34531735,16.1863665 1.57929846,17.456339 C3.09664382,19.0183713 4.63826671,18.7769902 5.34041827,20.1580805 C6.18899366,21.8267259 4.38297335,23.0539029 5.32486548,24.7987542 C5.9033534,25.8708917 6.69730436,25.6156209 7.84821082,26.9764397 C9.25023793,28.6341986 7.87590237,29.1056988 8.87014291,30.3186107 C12.0649136,34.2156204 13.3447944,31.5123773 15.2896518,32.5368393 C17.8107211,33.8649984 19.4972505,34.9990767 20.7316109,34.7336701 C25.582564,33.6896874 24.0883582,30.5333386 26.4428989,29.3170481 C29.6251514,27.6731789 31.1796717,20.9460415 28.9954531,18.5754013 C27.851754,17.3343345 26.7213317,17.1834244 26.6147382,16.1495775 C26.4614863,14.6573693 28.738263,14.2237843 28.9692789,12.4286296 C29.2314003,10.3932201 26.5020753,9.40742413 26.9083445,7.68809994 C27.3043717,6.01157116 30.1061499,6.07201029 30.285576,4.87486512 C30.5579395,3.05868818 24.5799781,-0.192636454 18.3884504,0.00895243015 C15.4277302,0.10580519 10.6052273,1.0510581 9.80255164,3.4926486 C9.33938197,4.9026446 10.5449129,5.81185927 9.86552147,7.63329179 C9.37162556,8.95732158 8.27837822,9.69798241 6.83083075,10.6518695 C5.45611586,11.5577056 2.75562045,9.12362302 0.562297736,12.1932549" id="Fill-5" fill="#4A90E2" opacity="0.209635417"></path>
                        <path d="M15.3580461,11.1008458 C14.3839104,11.0524195 13.8873591,17.4799891 14.452191,18.3227582 C15.0170228,19.1655274 16.0795439,19.7875624 16.1493417,20.7076636 C16.2198983,21.6277648 15.8049043,37.9301866 15.4612256,37.694061 C15.1171676,37.4583109 12.2649376,33.1862783 12.8347008,32.1914728 C13.4040846,31.1966673 14.0493358,29.6586605 13.9158094,28.3582808 C13.782283,27.0575257 13.781145,25.2053106 13.4128094,25.2507338 C13.0448531,25.2961569 13.3536329,28.4866671 13.0975809,29.104948 C12.8411495,29.7236044 12.7975258,30.2074928 12.4299489,30.2183794 C12.062372,30.2288905 12.054406,26.8536845 11.4933675,26.912622 C10.9327084,26.9719349 11.3139414,31.9463377 11.5070236,32.8671898 C11.7001058,33.7880418 12.3586337,36.9676653 12.9670892,38.1381572 C13.5751653,39.3090245 15.4240507,40.5362015 15.469571,40.9352499 C15.514712,41.3342983 15.2184504,50.8284966 15.2184504,50.8284966 L20.0621961,50.9152136 C20.0621961,50.9152136 18.2732459,32.1956022 18.6723077,31.572441 C19.0713696,30.9492799 21.5985083,25.891914 22.1398212,25.375366 C22.6811342,24.8588179 23.0047081,21.7069739 22.7190678,21.6611753 C22.4338069,21.6157521 22.274865,24.6895133 21.6808242,24.7398167 C21.0867835,24.7897446 20.7673823,18.7923815 20.3368356,18.8456881 C19.9062888,18.8986192 20.7544849,25.067164 20.5227104,25.4474425 C20.2905566,25.8280963 18.9397399,28.1112688 18.4906056,28.0628424 C18.0414714,28.014416 18.7375536,11.2262289 18.3525272,11.0374035 C17.9675008,10.8482028 17.6780672,11.0047439 17.4413613,12.7616079 C17.2046554,14.5184719 16.7456585,18.3561687 16.480123,18.3512885 C16.2142083,18.3464083 15.5499903,17.7679196 15.5363342,17.3831363 C15.5230574,16.998353 15.7912482,11.1222435 15.3580461,11.1008458" id="Fill-7" fill="#93BFF0"></path>
                    </g>
                </g>
                <g id="Group-12" transform="translate(0.000000, 86.000000)" fill="url(#linearGradient-1)">
                    <path d="M0,42.9998585 C0,66.7484442 54.6213837,86 122.000142,86 L122.000142,86 C189.378901,86 244,66.7484442 244,42.9998585 L244,42.9998585 C244,19.2515558 189.378901,0 122.000142,0 L122.000142,0 C54.6213837,0 0,19.2515558 0,42.9998585" id="Fill-10"></path>
                </g>
                <g id="" transform="translate(95.049085, 16.996946)" fill="#93BFF0" fill-rule="nonzero" opacity="0.417689732">
                    <path d="M20.6253946,0 C21.5863312,0 22.4613321,0.546336174 22.8753937,1.40696049 L27.8988326,11.7452407 L39.1253961,13.4014916 C40.0550807,13.5343051 40.8363307,14.1905546 41.1332048,15.0889921 C41.4300836,15.9952414 41.1878932,16.9796169 40.5160201,17.6514912 L32.3753942,25.6358671 L34.2972696,37.0889926 C34.4535196,38.0264926 34.0707076,38.9796162 33.2894576,39.5343041 C32.5160182,40.0889897 31.4925826,40.1593041 30.6566442,39.7139907 L20.6253946,34.3624282 L10.6019569,39.7139907 C9.75820667,40.1593041 8.73476869,40.0889897 7.96133167,39.5343041 C7.18789346,38.9796162 6.79726846,38.0264926 6.96133143,37.0889926 L8.88320691,25.6358671 L0.741019315,17.6514912 C0.068363017,16.9796169 -0.170699292,15.9952414 0.124613112,15.0889921 C0.419144696,14.1905546 1.19805104,13.5343051 2.13477022,13.4014916 L13.3519579,11.7452407 L18.3832074,1.40696049 C18.7972713,0.546336174 19.6722699,0 20.6253958,0 L20.6253946,0 Z M18.7425829,11.8780541 L18.7425829,20.6280541 C18.7425829,21.6671157 19.5785213,22.5030541 20.6175829,22.5030541 C21.6566444,22.5030541 22.4925829,21.6671157 22.4925829,20.6280541 L22.4925829,11.8780541 C22.4925829,10.8389926 21.6566444,10.0030541 20.6175829,10.0030541 C19.5785213,10.0030541 18.7425829,10.8389926 18.7425829,11.8780541 Z M20.6175829,25.0030541 C19.2347694,25.0030541 18.1175829,26.1202407 18.1175829,27.5030541 C18.1175829,28.8858676 19.2347694,30.0030541 20.6175829,30.0030541 C22.0003963,30.0030541 23.1175829,28.8858676 23.1175829,27.5030541 C23.1175829,26.1202407 22.0003963,25.0030541 20.6175829,25.0030541 Z" id="Shape"></path>
                </g>
                <path d="M151.95283,4.29850746 L151.95283,1.61561847 C151.95283,1.32491019 151.71419,1.07462687 151.419811,1.07462687 C151.134042,1.07462687 150.886792,1.31683706 150.886792,1.61561847 L150.886792,4.29850746 L148.225347,4.29850746 C147.936962,4.29850746 147.688679,4.53907089 147.688679,4.8358209 C147.688679,5.12389225 147.928953,5.37313433 148.225347,5.37313433 L150.886792,5.37313433 L150.886792,8.05602332 C150.886792,8.3467316 151.125433,8.59701493 151.419811,8.59701493 C151.70558,8.59701493 151.95283,8.35480473 151.95283,8.05602332 L151.95283,5.37313433 L154.614276,5.37313433 C154.902661,5.37313433 155.150943,5.13257091 155.150943,4.8358209 C155.150943,4.54774954 154.910669,4.29850746 154.614276,4.29850746 L151.95283,4.29850746 Z M180.735849,45.1343284 L180.735849,41.3835215 C180.735849,41.0748965 180.497208,40.8358209 180.20283,40.8358209 C179.917062,40.8358209 179.669811,41.0810348 179.669811,41.3835215 L179.669811,45.1343284 L175.948983,45.1343284 C175.642825,45.1343284 175.40566,45.3748917 175.40566,45.6716418 C175.40566,45.9597131 175.648914,46.2089552 175.948983,46.2089552 L179.669811,46.2089552 L179.669811,49.9597621 C179.669811,50.2683871 179.908452,50.5074627 180.20283,50.5074627 C180.488599,50.5074627 180.735849,50.2622487 180.735849,49.9597621 L180.735849,46.2089552 L184.456677,46.2089552 C184.762835,46.2089552 185,45.9683918 185,45.6716418 C185,45.3835704 184.756746,45.1343284 184.456677,45.1343284 L180.735849,45.1343284 Z M106.113208,3.2238806 L106.113208,0.540991601 C106.113208,0.250283327 105.874567,0 105.580189,0 C105.29442,0 105.04717,0.242210192 105.04717,0.540991601 L105.04717,3.2238806 L102.385724,3.2238806 C102.097339,3.2238806 101.849057,3.46444402 101.849057,3.76119403 C101.849057,4.04926539 102.089331,4.29850746 102.385724,4.29850746 L105.04717,4.29850746 L105.04717,6.98139646 C105.04717,7.27210473 105.28581,7.52238806 105.580189,7.52238806 C105.865958,7.52238806 106.113208,7.28017787 106.113208,6.98139646 L106.113208,4.29850746 L108.774653,4.29850746 C109.063038,4.29850746 109.311321,4.05794404 109.311321,3.76119403 C109.311321,3.47312267 109.071047,3.2238806 108.774653,3.2238806 L106.113208,3.2238806 Z M162.613208,65.5522388 L162.613208,62.8693498 C162.613208,62.5786415 162.374567,62.3283582 162.080189,62.3283582 C161.79442,62.3283582 161.54717,62.5705684 161.54717,62.8693498 L161.54717,65.5522388 L158.885724,65.5522388 C158.597339,65.5522388 158.349057,65.7928022 158.349057,66.0895522 C158.349057,66.3776236 158.589331,66.6268657 158.885724,66.6268657 L161.54717,66.6268657 L161.54717,69.3097547 C161.54717,69.600463 161.78581,69.8507463 162.080189,69.8507463 C162.365958,69.8507463 162.613208,69.6085361 162.613208,69.3097547 L162.613208,66.6268657 L165.274653,66.6268657 C165.563038,66.6268657 165.811321,66.3863023 165.811321,66.0895522 C165.811321,65.8014809 165.571047,65.5522388 165.274653,65.5522388 L162.613208,65.5522388 Z M76.2641509,40.8358209 L76.2641509,38.1529319 C76.2641509,37.8622236 76.0255103,37.6119403 75.7311321,37.6119403 C75.4453632,37.6119403 75.1981132,37.8541504 75.1981132,38.1529319 L75.1981132,40.8358209 L72.5366676,40.8358209 C72.2482829,40.8358209 72,41.0763843 72,41.3731343 C72,41.6612057 72.2402743,41.9104478 72.5366676,41.9104478 L75.1981132,41.9104478 L75.1981132,44.5933368 C75.1981132,44.8840451 75.4367539,45.1343284 75.7311321,45.1343284 C76.016901,45.1343284 76.2641509,44.8921182 76.2641509,44.5933368 L76.2641509,41.9104478 L78.9255965,41.9104478 C79.2139813,41.9104478 79.4622642,41.6698844 79.4622642,41.3731343 C79.4622642,41.085063 79.2219899,40.8358209 78.9255965,40.8358209 L76.2641509,40.8358209 Z M113.575472,67.7014925 L113.575472,65.0186035 C113.575472,64.7278952 113.336831,64.4776119 113.042453,64.4776119 C112.756684,64.4776119 112.509434,64.7198221 112.509434,65.0186035 L112.509434,67.7014925 L109.847988,67.7014925 C109.559604,67.7014925 109.311321,67.9420559 109.311321,68.238806 C109.311321,68.5268773 109.551595,68.7761194 109.847988,68.7761194 L112.509434,68.7761194 L112.509434,71.4590084 C112.509434,71.7497167 112.748075,72 113.042453,72 C113.328222,72 113.575472,71.7577899 113.575472,71.4590084 L113.575472,68.7761194 L116.236917,68.7761194 C116.525302,68.7761194 116.773585,68.535556 116.773585,68.238806 C116.773585,67.9507346 116.533311,67.7014925 116.236917,67.7014925 L113.575472,67.7014925 Z" id="Shape" fill="#B9D9FC" fill-rule="nonzero"></path>
                <circle id="Oval" stroke-opacity="0.491613855" stroke="#7D9CA0" cx="167.5" cy="30.5" r="3.5"></circle>
                <circle id="Oval" fill-opacity="0.4" fill="#7D9CA0" fill-rule="nonzero" cx="156.5" cy="35.5" r="1.5"></circle>
                <circle id="Oval" fill-opacity="0.4" fill="#7D9CA0" fill-rule="nonzero" cx="79.5" cy="69.5" r="1.5"></circle>
            </g>
        </g>
    </g>
</svg>